<?xml version="1.0" encoding="UTF-8"?><svg id="a" xmlns="http://www.w3.org/2000/svg" xmlns:xlink="http://www.w3.org/1999/xlink" viewBox="0 0 1080 1080"><defs><linearGradient id="d" x1="691.583" y1="243.22" x2="255.325" y2="756.36" gradientUnits="userSpaceOnUse"><stop offset="0" stop-color="#b9b9b9"/><stop offset="1" stop-color="#f5f5f5"/></linearGradient><linearGradient id="e" x1="232.758" y1="932.123" x2="287.308" y2="932.123" xlink:href="#d"/><linearGradient id="f" x1="296.393" y1="932.123" x2="332.619" y2="932.123" xlink:href="#d"/><linearGradient id="g" x1="338.084" y1="932.123" x2="371.231" y2="932.123" xlink:href="#d"/><linearGradient id="h" x1="383.203" y1="932.123" x2="410.651" y2="932.123" xlink:href="#d"/><linearGradient id="i" x1="414.616" y1="932.123" x2="469.166" y2="932.123" xlink:href="#d"/><linearGradient id="j" x1="477.982" y1="932.123" x2="522.445" y2="932.123" xlink:href="#d"/><linearGradient id="k" x1="557.554" y1="932.123" x2="612.104" y2="932.123" xlink:href="#d"/><linearGradient id="l" x1="621.19" y1="932.123" x2="657.415" y2="932.123" xlink:href="#d"/><linearGradient id="m" x1="662.882" y1="932.123" x2="696.028" y2="932.123" xlink:href="#d"/><linearGradient id="n" x1="708" y1="932.123" x2="735.448" y2="932.123" xlink:href="#d"/><linearGradient id="o" x1="739.413" y1="932.123" x2="793.963" y2="932.123" xlink:href="#d"/><linearGradient id="p" x1="802.778" y1="932.123" x2="847.242" y2="932.123" xlink:href="#d"/><linearGradient id="q" x1="39.637" y1="786.599" x2="155.64" y2="786.599" xlink:href="#d"/><linearGradient id="r" x1="162.452" y1="832.18" x2="185.562" y2="832.18" xlink:href="#d"/><linearGradient id="s" x1="192.838" y1="786.41" x2="309.474" y2="786.41" xlink:href="#d"/><linearGradient id="t" x1="652.894" y1="786.41" x2="769.53" y2="786.41" xlink:href="#d"/><linearGradient id="u" x1="923.727" y1="786.41" x2="1040.363" y2="786.41" xlink:href="#d"/><linearGradient id="v" x1="320.385" y1="786.543" x2="417.186" y2="786.543" xlink:href="#d"/><linearGradient id="w" x1="417.181" y1="786.452" x2="519.806" y2="786.452" xlink:href="#d"/><linearGradient id="x" x1="530.717" y1="786.547" x2="546.912" y2="786.547" xlink:href="#d"/><linearGradient id="y" x1="557.828" y1="786.705" x2="652.894" y2="786.705" xlink:href="#d"/><linearGradient id="z" x1="787.629" y1="786.531" x2="882.43" y2="786.531" xlink:href="#d"/><linearGradient id="aa" x1="893.342" y1="832.18" x2="916.45" y2="832.18" xlink:href="#d"/></defs><g id="c"><path d="M874.607,342.626c-20.669,0-37.417-16.757-37.417-37.417s-16.748-37.409-37.409-37.409-37.417-16.748-37.417-37.417-16.757-37.417-37.418-37.417-37.409-16.748-37.409-37.409-16.757-37.418-37.418-37.418-37.417,16.748-37.417,37.418-16.748,37.409-37.417,37.409-37.409,16.757-37.409,37.417-16.748,37.417-37.417,37.417-37.418,16.748-37.418,37.409-16.748,37.417-37.409,37.417-37.417,16.757-37.417,37.418,16.748,37.409,37.417,37.409,37.409,16.757,37.409,37.418,16.757,37.417,37.418,37.417,37.417-16.748,37.417-37.417,16.723-37.392,37.359-37.418h.05c1.273,0,2.539-.067,3.779-.193,18.893-1.885,33.639-17.829,33.639-37.216,0-.452-.008-.905-.025-1.349.712-20.041,17.176-36.069,37.392-36.069,20.661,0,37.409,16.757,37.409,37.418s-16.748,37.409-37.409,37.409-37.417,16.757-37.417,37.418-16.748,37.417-37.417,37.417-37.418,16.748-37.418,37.418-16.748,37.409-37.409,37.409-37.417-16.748-37.417-37.409-16.748-37.418-37.417-37.418-37.409-16.748-37.409-37.417-16.757-37.418-37.417-37.418-37.409-16.748-37.409-37.409,16.748-37.418,37.409-37.418,37.417-16.757,37.417-37.417,16.748-37.409,37.409-37.409,37.417-16.757,37.417-37.417,16.757-37.417,37.417-37.417,37.409-16.748,37.409-37.418-16.748-37.409-37.409-37.409-37.417,16.748-37.417,37.409-16.748,37.418-37.417,37.418-37.409,16.757-37.409,37.417-16.757,37.417-37.417,37.417-37.409,16.748-37.409,37.409-16.757,37.417-37.426,37.417-37.409,16.757-37.409,37.418,16.748,37.409,37.409,37.409,37.426,16.757,37.426,37.418,16.748,37.417,37.409,37.417,37.417,16.748,37.417,37.418,16.748,37.409,37.409,37.409,37.417,16.748,37.417,37.418,16.757,37.417,37.417,37.417,37.409-16.748,37.409-37.417,16.757-37.418,37.418-37.418,37.417-16.748,37.417-37.409,16.748-37.418,37.417-37.418,37.409-16.748,37.409-37.417,16.757-37.418,37.417-37.418,37.418-16.748,37.418-37.409-16.748-37.418-37.418-37.418-37.417-16.757-37.417-37.417-16.748-37.409-37.409-37.409-37.417,16.748-37.417,37.409-16.723,37.392-37.367,37.417c-1.29,0-2.564.067-3.829.193-18.885,1.885-33.639,17.837-33.639,37.225,0,.486.008.972.033,1.449-.762,19.991-17.209,35.96-37.392,35.96-20.661,0-37.418-16.748-37.418-37.409s16.757-37.418,37.418-37.418,37.417-16.757,37.417-37.417,16.748-37.409,37.409-37.409,37.417-16.748,37.417-37.417,16.757-37.417,37.417-37.417,37.418,16.757,37.418,37.417,16.748,37.417,37.409,37.417,37.418,16.748,37.418,37.409,16.757,37.417,37.417,37.417,37.409,16.757,37.409,37.418-16.748,37.409-37.409,37.409-37.417,16.757-37.417,37.418-16.757,37.417-37.418,37.417-37.409,16.757-37.409,37.418-16.757,37.409-37.418,37.409-37.417,16.748-37.417,37.418,16.757,37.417,37.417,37.417,37.418-16.748,37.418-37.417,16.748-37.418,37.409-37.418,37.418-16.748,37.418-37.409,16.757-37.418,37.417-37.418,37.409-16.748,37.409-37.417,16.748-37.418,37.417-37.418,37.418-16.748,37.418-37.409-16.757-37.418-37.418-37.418Z" fill="url(#d)"/><path d="M287.308,960.438h-6.082l-8.892-18.632h-24.407l-8.854,18.632h-6.313l26.755-56.629h1.386l26.409,56.629ZM269.83,936.3l-9.624-20.519-9.74,20.519h19.364Z" fill="url(#e)"/><path d="M332.619,960.438h-6.968l-20.404-26.332h-3.234v26.332h-5.62v-56.629h11.279c6.288,0,10.548.257,12.781.77,3.49.795,6.255,2.477,8.295,5.043,2.041,2.566,3.061,5.647,3.061,9.239,0,6.467-2.809,10.933-8.426,13.397-2.705,1.206-6.441,1.822-11.208,1.847l20.442,26.332ZM325.958,918.863c0-1.866-.502-3.572-1.506-5.12-1.004-1.546-2.356-2.659-4.056-3.336-1.699-.677-4.493-1.016-8.381-1.016h-10.003v19.171l9.771.077c6.463.052,10.686-1.456,12.668-4.524,1.004-1.559,1.506-3.311,1.506-5.253Z" fill="url(#f)"/><path d="M371.231,946.606c0,4.289-1.617,7.923-4.851,10.903-3.131,2.901-6.866,4.352-11.203,4.352-7.032,0-12.73-3.99-17.093-11.972l4.812-2.888c3.394,6.211,7.315,9.316,11.762,9.316,4.216,0,7.275-1.627,9.178-4.885.874-1.488,1.312-3.065,1.312-4.732,0-1.898-.643-3.756-1.928-5.578-1.671-2.384-4.782-5.271-9.332-8.656-4.653-3.436-7.725-6.155-9.216-8.154-2.005-2.693-3.008-5.578-3.008-8.656,0-5.231,2.258-9.078,6.775-11.541,2.13-1.153,4.453-1.73,6.968-1.73,5.389,0,10.343,3.092,14.86,9.277l-4.62,3.504c-1.724-2.271-3.189-3.883-4.398-4.839-1.801-1.42-3.795-2.129-5.98-2.129s-4.012.654-5.478,1.964c-1.543,1.336-2.315,3.083-2.315,5.24,0,2.542,1.195,4.995,3.586,7.358.694.668,3.135,2.555,7.326,5.663,3.856,2.851,6.735,5.418,8.638,7.705,2.802,3.416,4.203,6.908,4.203,10.478Z" fill="url(#g)"/><path d="M410.651,960.438h-27.448v-56.629h5.659v51.124h21.789v5.504Z" fill="url(#h)"/><path d="M469.166,960.438h-6.082l-8.892-18.632h-24.407l-8.854,18.632h-6.313l26.755-56.629h1.386l26.409,56.629ZM451.689,936.3l-9.624-20.519-9.74,20.519h19.364Z" fill="url(#i)"/><path d="M522.445,960.438h-1.27l-37.38-42.808v42.808h-5.813v-56.629h1.232l37.611,43.347v-43.347h5.619v56.629Z" fill="url(#j)"/><path d="M612.104,960.438h-6.084l-8.892-18.632h-24.406l-8.854,18.632h-6.314l26.755-56.629h1.386l26.409,56.629ZM594.627,936.3l-9.624-20.519-9.74,20.519h19.364Z" fill="url(#k)"/><path d="M657.415,960.438h-6.968l-20.403-26.332h-3.234v26.332h-5.62v-56.629h11.279c6.287,0,10.548.257,12.781.77,3.49.795,6.255,2.477,8.295,5.043s3.06,5.647,3.06,9.239c0,6.467-2.807,10.933-8.425,13.397-2.706,1.206-6.442,1.822-11.208,1.847l20.443,26.332ZM650.755,918.863c0-1.866-.502-3.572-1.505-5.12-1.005-1.546-2.357-2.659-4.056-3.336-1.698-.677-4.492-1.016-8.381-1.016h-10.003v19.171l9.772.077c6.462.052,10.685-1.456,12.668-4.524,1.004-1.559,1.505-3.311,1.505-5.253Z" fill="url(#l)"/><path d="M696.028,946.606c0,4.289-1.617,7.923-4.85,10.903-3.131,2.901-6.866,4.352-11.203,4.352-7.033,0-12.73-3.99-17.093-11.972l4.812-2.888c3.394,6.211,7.315,9.316,11.762,9.316,4.216,0,7.275-1.627,9.178-4.885.874-1.488,1.311-3.065,1.311-4.732,0-1.898-.643-3.756-1.928-5.578-1.671-2.384-4.782-5.271-9.332-8.656-4.653-3.436-7.725-6.155-9.215-8.154-2.006-2.693-3.008-5.578-3.008-8.656,0-5.231,2.259-9.078,6.776-11.541,2.13-1.153,4.453-1.73,6.968-1.73,5.39,0,10.342,3.092,14.859,9.277l-4.619,3.504c-1.724-2.271-3.19-3.883-4.398-4.839-1.801-1.42-3.795-2.129-5.98-2.129s-4.013.654-5.479,1.964c-1.543,1.336-2.315,3.083-2.315,5.24,0,2.542,1.195,4.995,3.586,7.358.694.668,3.137,2.555,7.326,5.663,3.856,2.851,6.735,5.418,8.638,7.705,2.801,3.416,4.202,6.908,4.202,10.478Z" fill="url(#m)"/><path d="M735.448,960.438h-27.449v-56.629h5.659v51.124h21.789v5.504Z" fill="url(#n)"/><path d="M793.963,960.438h-6.084l-8.892-18.632h-24.406l-8.854,18.632h-6.314l26.755-56.629h1.386l26.409,56.629ZM776.486,936.3l-9.624-20.519-9.74,20.519h19.364Z" fill="url(#o)"/><path d="M847.242,960.438h-1.27l-37.38-42.808v42.808h-5.813v-56.629h1.231l37.611,43.347v-43.347h5.621v56.629Z" fill="url(#p)"/><path d="M135.529,817.169s-5.64-25.293-32.934-24.928v-15.103c56.043,1.093,53.016,66.664,53.016,66.664h-14.92c-.182-6.915-1.522-12.804-1.522-12.804-10.553,7.824-24.747,13.828-38.393,13.828-33.663,0-61.138-26.019-61.138-58.227s27.476-58.227,61.138-58.227c18.56,0,35.846,8.007,47.673,22.018l-10.19,10.19c-8.552-10.554-21.289-18.014-37.483-18.014-24.564,0-43.67,19.651-43.67,44.033,0,24.202,19.106,44.034,43.67,44.034,13.283,0,26.02-6.915,34.754-13.465Z" fill="url(#q)"/><path d="M173.916,820.626c3.275,0,6.004,1.093,8.188,3.458,2.365,2.184,3.457,4.912,3.457,8.006,0,3.275-1.092,6.005-3.457,8.37-2.184,2.184-4.913,3.275-8.188,3.275-3.093,0-5.823-1.091-8.188-3.275-2.184-2.365-3.276-5.095-3.276-8.37,0-3.093,1.092-5.822,3.276-8.006,2.365-2.365,5.095-3.458,8.188-3.458Z" fill="url(#r)"/><path d="M210.306,844.466h-17.468l50.403-116.112h16.012l50.221,116.112h-17.468l-19.652-45.311c-32.752-5.642-62.048,45.311-62.048,45.311ZM265.804,784.052l-14.739-33.299-23.108,52.768s16.012-19.833,37.847-19.469Z" fill="url(#s)"/><path d="M670.362,844.466h-17.468l50.403-116.112h16.012l50.221,116.112h-17.468l-19.652-45.311c-32.752-5.642-62.048,45.311-62.048,45.311ZM725.859,784.052l-14.739-33.299-23.108,52.768s16.012-19.833,37.847-19.469Z" fill="url(#t)"/><path d="M941.195,844.466h-17.468l50.403-116.112h16.012l50.221,116.112h-17.468l-19.652-45.311c-32.752-5.642-62.048,45.311-62.048,45.311ZM996.693,784.052l-14.739-33.299-23.108,52.768s16.012-19.833,37.847-19.469Z" fill="url(#u)"/><path d="M372.425,804.049c16.922,20.197,34.936,35.588,44.762,40.682h-27.112c-35.482-19.833-53.678-69.978-53.678-69.978v69.978h-16.012v-116.378h53.496c20.379,0,37.119,15.831,37.119,33.48,0,11.645-6.915,21.472-16.376,27.294l-22.199,14.922ZM339.854,742.183c5.64,19.834,14.192,36.392,23.836,50.221,8.552-5.823,20.925-14.011,21.472-14.375,5.64-3.821,9.643-9.825,9.643-16.195,0-10.19-10.19-19.651-20.925-19.651h-34.027Z" fill="url(#v)"/><path d="M519.806,742.265h-43.306v102.201h-16.012v-102.201h-43.306v-13.828h102.625v13.828Z" fill="url(#w)"/><path d="M530.717,728.354h16.195v116.387h-16.195v-116.387Z" fill="url(#x)"/><path d="M649.899,749.116l-8.734,8.917s-12.373-15.285-33.845-16.376c-16.921-.911-27.294,3.275-27.839,12.555-1.639,26.019,70.782,17.467,73.329,56.771,1.819,28.385-26.384,35.118-46.763,33.844-21.472-1.091-38.576-12.555-48.219-22.744l9.097-9.643s15.65,17.649,39.304,18.195c17.286.546,30.024-5.459,29.477-16.739-.91-29.477-76.059-17.832-72.784-60.229,1.456-17.286,17.469-26.384,44.398-25.11,15.103.545,32.207,6.915,42.579,20.561Z" fill="url(#y)"/><path d="M866.237,844.709s-20.925-84.512-62.413-97.977v97.977h-16.195v-116.355h16.195c47.128,18.378,62.594,76.26,62.594,76.26v-76.26h16.012v116.355h-16.193Z" fill="url(#z)"/><path d="M904.805,820.626c3.276,0,6.005,1.093,8.189,3.458,2.365,2.184,3.457,4.912,3.457,8.006,0,3.275-1.091,6.005-3.457,8.37-2.184,2.184-4.912,3.275-8.189,3.275-3.093,0-5.822-1.091-8.187-3.275-2.184-2.365-3.275-5.095-3.275-8.37,0-3.093,1.091-5.822,3.275-8.006,2.365-2.365,5.094-3.458,8.187-3.458Z" fill="url(#aa)"/></g></svg>